<svg width="88" height="62" viewBox="0 0 88 62" fill="none" xmlns="http://www.w3.org/2000/svg">
<path d="M62.3153 30.3701L86.3773 0H68.5967L49.4867 25.0652H34.4313H32.4372H24.5273C19.5753 25.0652 16.8168 22.8439 16.8168 18.6332C16.8168 14.4225 19.5753 12.1016 24.5273 12.1016H32.4372H34.4313H49.5531V0H21.5694C8.94017 0 1.4291 6.26631 1.4291 16.0802C1.4291 23.5733 5.94903 28.4471 11.9645 30.2043C4.71935 31.6963 0 38.062 0 45.1241C0 55.369 7.51107 62 20.6056 62H32.7363H47.8582H49.5531V36.8353L68.7629 62H87.2747L62.3153 30.3701ZM34.4313 49.7989H32.7363H26.2887H23.2644C18.2127 49.7989 15.288 47.5112 15.288 43.1016C15.288 38.692 18.3789 36.139 23.4306 36.139H26.0893H34.398V42.5711V49.7989H34.4313Z" fill="white"/>
</svg>
